<?xml version="1.0" encoding="UTF-8" standalone="no"?>
<!DOCTYPE svg PUBLIC "-//W3C//DTD SVG 1.1//EN" "http://www.w3.org/Graphics/SVG/1.1/DTD/svg11.dtd">
<svg width="100%" height="100%" viewBox="0 0 1000 90" version="1.1" xmlns="http://www.w3.org/2000/svg" xmlns:xlink="http://www.w3.org/1999/xlink" xml:space="preserve" xmlns:serif="http://www.serif.com/" style="fill-rule:evenodd;clip-rule:evenodd;stroke-linejoin:round;stroke-miterlimit:2;">
    <g transform="matrix(1,0,0,1,4.10475,83.2388)">
        <g id="Layer-1" serif:id="Layer 1">
            <g id="text6171">
                <g>
                    <g transform="matrix(109.263,0,0,109.263,0,0)">
                        <path d="M0.572,-0.467c0.007,0.005 0.013,0.009 0.016,0.011c0.004,0.003 0.007,0.005 0.009,0.006c0.002,0.001 0.005,0.003 0.007,0.005c0.002,0.002 0.006,0.005 0.011,0.008c-0.003,0.008 -0.005,0.013 -0.005,0.017c0,0.004 0.001,0.008 0.001,0.011c0.001,0.004 0.002,0.008 0.003,0.012c0.001,0.003 0.001,0.009 0,0.015c-0.036,0.023 -0.067,0.041 -0.095,0.054c-0.028,0.014 -0.054,0.025 -0.08,0.035c-0.026,0.01 -0.052,0.019 -0.08,0.028c-0.028,0.009 -0.06,0.02 -0.096,0.035c0.015,0.009 0.034,0.017 0.058,0.023c0.024,0.007 0.047,0.015 0.071,0.024c0.024,0.009 0.045,0.02 0.065,0.033c0.02,0.013 0.033,0.03 0.039,0.05c0.009,0.001 0.017,0.006 0.024,0.016c0.007,0.01 0.01,0.021 0.008,0.034c-0.006,0.004 -0.012,0.008 -0.018,0.013c-0.005,0.005 -0.012,0.009 -0.021,0.012c-0.007,0.001 -0.016,0 -0.028,-0.002c-0.011,-0.003 -0.023,-0.007 -0.037,-0.011c-0.013,-0.005 -0.027,-0.01 -0.042,-0.015c-0.014,-0.005 -0.028,-0.009 -0.041,-0.012c-0.013,-0.004 -0.027,-0.007 -0.043,-0.009c-0.015,-0.003 -0.029,-0.007 -0.042,-0.012c-0.006,-0.003 -0.011,-0.006 -0.015,-0.009c-0.005,-0.004 -0.01,-0.006 -0.015,-0.008c-0.012,-0.001 -0.025,-0.005 -0.038,-0.011c-0.013,-0.005 -0.027,-0.011 -0.041,-0.018c-0.013,-0.006 -0.027,-0.013 -0.04,-0.019c-0.013,-0.007 -0.026,-0.013 -0.038,-0.018c0.001,-0.004 -0.003,-0.009 -0.012,-0.015c-0.009,-0.005 -0.019,-0.009 -0.03,-0.009c0,-0.008 -0.003,-0.015 -0.009,-0.021c-0.006,-0.007 -0.011,-0.014 -0.014,-0.021c-0.007,-0.019 -0.005,-0.036 0.008,-0.052c0.012,-0.016 0.031,-0.026 0.055,-0.029c0.008,0.002 0.014,0.003 0.018,0.003c0.005,-0 0.01,0.001 0.018,0.004c0.011,-0.007 0.025,-0.015 0.042,-0.023c0.017,-0.007 0.033,-0.009 0.048,-0.006c0.002,-0.005 0.006,-0.008 0.012,-0.008c0.005,0 0.009,-0.003 0.01,-0.008c0.027,-0.005 0.053,-0.012 0.078,-0.022c0.025,-0.01 0.05,-0.02 0.074,-0.032c0.024,-0.011 0.048,-0.023 0.07,-0.034c0.022,-0.011 0.044,-0.022 0.065,-0.031c0.009,0.003 0.018,0.003 0.025,-0c0.008,-0.003 0.016,-0.004 0.025,-0.004c-0.002,0.002 -0.003,0.004 -0.001,0.004c0.001,0.001 0.003,0.001 0.006,0.002c0.002,0 0.005,0 0.008,0.001c0.003,0 0.005,0.001 0.007,0.003Z" style="fill:rgb(219,189,48);fill-rule:nonzero;"/>
                    </g>
                    <g transform="matrix(109.263,0,0,109.263,68.2892,0)">
                        <path d="M0.283,-0.548c0.012,-0.008 0.025,-0.022 0.038,-0.041c0.014,-0.02 0.028,-0.039 0.044,-0.057c0.015,-0.019 0.031,-0.036 0.047,-0.05c0.016,-0.014 0.032,-0.02 0.048,-0.018c0.01,0.024 0.016,0.047 0.017,0.07c0,0.023 -0.002,0.049 -0.007,0.079c-0.006,0.007 -0.015,0.016 -0.026,0.029c-0.011,0.012 -0.023,0.026 -0.036,0.041c-0.014,0.016 -0.027,0.031 -0.042,0.048c-0.014,0.016 -0.028,0.032 -0.04,0.047c-0.013,0.015 -0.024,0.028 -0.034,0.041c-0.009,0.012 -0.015,0.022 -0.019,0.029c-0.009,0.01 -0.021,0.023 -0.036,0.041c-0.015,0.018 -0.031,0.036 -0.048,0.056c-0.016,0.019 -0.032,0.038 -0.047,0.057c-0.015,0.018 -0.028,0.034 -0.038,0.046c-0,0.003 0.001,0.006 0.003,0.009c0.003,0.003 0.005,0.005 0.006,0.009c-0.007,0.006 -0.011,0.012 -0.012,0.018c-0.002,0.005 -0.002,0.011 -0.001,0.017c0,0.006 0.001,0.011 0.003,0.017c0.001,0.005 0.001,0.011 0.001,0.018c-0.005,0.004 -0.009,0.008 -0.012,0.014c-0.003,0.005 -0.006,0.01 -0.009,0.015c-0.002,0.005 -0.006,0.009 -0.01,0.014c-0.004,0.005 -0.01,0.008 -0.016,0.012c-0.014,-0.002 -0.025,-0.003 -0.034,-0.006c-0.008,-0.002 -0.018,-0.004 -0.03,-0.006c-0.011,-0.009 -0.018,-0.02 -0.022,-0.034c-0.004,-0.013 -0.006,-0.027 -0.006,-0.041c0.001,-0.014 0.002,-0.028 0.005,-0.042c0.003,-0.014 0.006,-0.026 0.009,-0.036c0.008,-0.005 0.008,-0.008 0.001,-0.01c0.003,-0.009 0.008,-0.017 0.014,-0.023c0.007,-0.006 0.01,-0.012 0.01,-0.016c0.004,-0.007 0.013,-0.018 0.026,-0.033c0.013,-0.015 0.027,-0.03 0.043,-0.047c0.015,-0.017 0.03,-0.034 0.044,-0.05c0.015,-0.016 0.026,-0.028 0.033,-0.037c0.004,-0.011 0.013,-0.024 0.027,-0.041c0.014,-0.016 0.029,-0.033 0.044,-0.051c0.015,-0.018 0.029,-0.034 0.042,-0.05c0.013,-0.015 0.02,-0.028 0.02,-0.038Z" style="fill:rgb(219,189,48);fill-rule:nonzero;"/>
                    </g>
                    <g transform="matrix(109.263,0,0,109.263,112.144,0)">
                        <path d="M0.548,-0.309c-0,0.008 0.003,0.015 0.009,0.021c0.006,0.007 0.011,0.014 0.014,0.021c0.004,0.01 0.005,0.019 0.004,0.028c-0.002,0.009 -0.006,0.017 -0.012,0.024c-0.005,0.007 -0.013,0.014 -0.022,0.019c-0.01,0.005 -0.021,0.008 -0.033,0.01c-0.008,-0.003 -0.014,-0.004 -0.018,-0.003c-0.004,0 -0.01,-0.001 -0.017,-0.004c-0.012,0.007 -0.026,0.015 -0.043,0.023c-0.016,0.007 -0.033,0.009 -0.048,0.006c-0.002,0.005 -0.006,0.008 -0.011,0.008c-0.006,-0 -0.009,0.003 -0.011,0.009c-0.026,0.004 -0.052,0.011 -0.078,0.021c-0.025,0.01 -0.05,0.02 -0.074,0.032c-0.024,0.011 -0.047,0.023 -0.07,0.034c-0.022,0.012 -0.044,0.022 -0.065,0.031c-0.009,-0.003 -0.017,-0.003 -0.025,0c-0.008,0.003 -0.016,0.004 -0.025,0.004c0.002,-0.002 0.003,-0.004 0.001,-0.004c-0.001,-0.001 -0.003,-0.001 -0.005,-0.002c-0.003,-0 -0.006,-0 -0.009,-0.001c-0.003,-0 -0.005,-0.001 -0.007,-0.003c-0.007,-0.005 -0.023,-0.015 -0.025,-0.017c-0.002,-0.001 -0.005,-0.003 -0.007,-0.005c-0.003,-0.002 -0.006,-0.005 -0.011,-0.008c0.003,-0.007 0.004,-0.012 0.004,-0.017c0.001,-0.004 0.001,-0.008 -0,-0.011c-0.001,-0.004 -0.002,-0.008 -0.003,-0.011c-0.001,-0.004 -0.001,-0.01 -0,-0.016c0.036,-0.023 0.067,-0.041 0.095,-0.054c0.027,-0.014 0.054,-0.025 0.08,-0.035c0.026,-0.01 0.053,-0.019 0.08,-0.028c0.028,-0.009 0.06,-0.02 0.097,-0.034c-0.015,-0.009 -0.035,-0.017 -0.059,-0.024c-0.023,-0.007 -0.047,-0.015 -0.071,-0.024c-0.024,-0.009 -0.045,-0.02 -0.065,-0.033c-0.019,-0.013 -0.032,-0.03 -0.039,-0.05c-0.009,-0.001 -0.017,-0.006 -0.024,-0.016c-0.007,-0.01 -0.009,-0.021 -0.008,-0.034c0.006,-0.004 0.012,-0.008 0.018,-0.013c0.005,-0.005 0.012,-0.009 0.021,-0.012c0.007,-0.001 0.016,-0 0.028,0.002c0.011,0.003 0.024,0.007 0.037,0.011c0.013,0.005 0.027,0.01 0.042,0.015c0.015,0.005 0.028,0.009 0.041,0.012c0.013,0.004 0.028,0.007 0.043,0.009c0.015,0.003 0.029,0.007 0.042,0.012c0.006,0.003 0.011,0.006 0.015,0.009c0.005,0.004 0.01,0.006 0.016,0.008c0.011,0.002 0.024,0.005 0.037,0.011c0.014,0.005 0.027,0.011 0.041,0.018c0.013,0.006 0.027,0.013 0.04,0.02c0.014,0.007 0.026,0.012 0.038,0.017c-0.001,0.004 0.003,0.009 0.013,0.015c0.009,0.005 0.018,0.009 0.029,0.009Z" style="fill:rgb(219,189,48);fill-rule:nonzero;"/>
                    </g>
                    <g transform="matrix(109.263,0,0,109.263,181.5,0)">
                        <path d="M0.021,-0.551c-0,-0.005 -0.001,-0.01 -0.003,-0.014c-0.002,-0.004 -0.003,-0.009 -0.005,-0.014c-0.004,-0.008 -0.006,-0.016 -0.009,-0.025c-0.003,-0.01 -0.004,-0.02 -0.004,-0.033c0.001,-0.006 0.003,-0.011 0.005,-0.014c0.002,-0.003 0.004,-0.005 0.006,-0.007l0.004,-0.018l0.014,0c0.006,0.001 0.011,0.001 0.016,0.001l0.017,0c0.024,0 0.05,-0.001 0.076,-0.003c0.026,-0.002 0.052,-0.004 0.08,-0.007c0.03,-0.003 0.062,-0.006 0.096,-0.008c0.004,-0.008 0.006,-0.012 0.007,-0.014c0.001,-0.002 0.002,-0.004 0.003,-0.007l0.011,-0.006c0.015,-0 0.025,0.001 0.031,0.006c0.006,0.004 0.011,0.008 0.014,0.012c0.017,-0.001 0.034,-0.003 0.052,-0.006c0.017,-0.002 0.035,-0.004 0.054,-0.007c0.026,-0.003 0.053,-0.006 0.079,-0.01c0.027,-0.003 0.053,-0.004 0.079,-0.004c0.011,-0 0.021,-0 0.031,0c0.01,0.001 0.019,0.002 0.028,0.003l0.012,0.009c0.002,0.005 0.006,0.009 0.01,0.013c0.004,0.004 0.008,0.008 0.013,0.012c0.01,0.007 0.02,0.017 0.029,0.029c0.01,0.012 0.013,0.029 0.01,0.052l-0.005,0.009c-0.002,0.003 -0.005,0.006 -0.009,0.008l-0.01,0.013l-0.011,-0c-0.006,-0 -0.011,0 -0.014,0.001c-0.004,0.001 -0.018,0.007 -0.021,0.008c-0.003,0.001 -0.007,0.002 -0.011,0.004c-0.007,-0.001 -0.012,-0.001 -0.016,-0.001l-0.014,-0c-0.02,-0 -0.041,0.001 -0.063,0.004c-0.023,0.002 -0.045,0.005 -0.067,0.008c-0.015,0.002 -0.03,0.004 -0.045,0.006c-0.014,0.001 -0.027,0.003 -0.039,0.004c-0.006,0.017 -0.012,0.032 -0.017,0.045c-0.006,0.013 -0.011,0.026 -0.017,0.039c-0.006,0.013 -0.011,0.026 -0.017,0.04c-0.005,0.013 -0.01,0.028 -0.014,0.044c-0.008,0.012 -0.015,0.023 -0.02,0.034c-0.005,0.011 -0.009,0.023 -0.013,0.036c-0.009,0.011 -0.016,0.024 -0.021,0.037c-0.004,0.013 -0.007,0.024 -0.011,0.033l-0.004,0.014c-0.004,0.005 -0.007,0.009 -0.008,0.011c-0.001,0.003 -0.003,0.006 -0.005,0.009c-0.002,0.008 -0.005,0.017 -0.008,0.024c-0.001,0.004 -0.003,0.007 -0.004,0.011c-0.001,0.003 -0.002,0.006 -0.001,0.008c-0.001,0.007 -0.003,0.013 -0.006,0.016c0,0.004 -0,0.008 -0.001,0.012c-0,0.004 -0.001,0.008 -0.002,0.012c-0.001,0.004 -0.002,0.009 -0.003,0.012c-0,0.004 -0,0.007 0.001,0.01c0.002,0.003 0.004,0.006 0.006,0.008c0.002,0.003 0.004,0.006 0.005,0.01c0.001,0.001 0.003,0.002 0.005,0.003c0.002,0.001 0.003,0.002 0.005,0.003c0.005,0.004 0.01,0.007 0.014,0.008l0.01,0.011c0.004,0.024 0,0.042 -0.011,0.055c-0.011,0.015 -0.031,0.023 -0.058,0.023l-0.014,-0.001c-0.004,-0.005 -0.007,-0.008 -0.008,-0.009c-0.006,-0.003 -0.01,-0.005 -0.014,-0.007c-0.004,-0.001 -0.008,-0.004 -0.011,-0.009c-0.001,-0.001 -0.003,-0.002 -0.005,-0.002c-0.002,-0.001 -0.004,-0.001 -0.005,-0.003c-0.006,-0.002 -0.012,-0.004 -0.015,-0.007l-0.011,-0.005c0,-0.007 0.001,-0.012 0.001,-0.014c-0.005,-0.007 -0.009,-0.015 -0.012,-0.024c-0.003,-0.008 -0.006,-0.017 -0.008,-0.026c-0.002,-0.007 -0.003,-0.014 -0.005,-0.019c-0.002,-0.006 -0.004,-0.012 -0.007,-0.016c-0.002,-0.046 0.003,-0.084 0.012,-0.115c0.01,-0.031 0.021,-0.061 0.033,-0.09c0.006,-0.016 0.012,-0.032 0.018,-0.048c0.006,-0.016 0.011,-0.033 0.016,-0.05l0.01,-0.011c0.005,-0.003 0.008,-0.006 0.009,-0.006c0,-0.009 0.002,-0.017 0.005,-0.025c0.003,-0.008 0.007,-0.017 0.011,-0.025c0.002,-0.005 0.005,-0.011 0.007,-0.016c0.002,-0.005 0.004,-0.01 0.005,-0.014c-0.005,0 -0.009,0.001 -0.013,0.001c-0.003,0 -0.007,0.001 -0.011,0.001c-0.008,0.002 -0.016,0.003 -0.024,0.003c-0.006,0 -0.01,0 -0.013,-0.001c-0.005,0.003 -0.01,0.004 -0.015,0.005c-0.004,0 -0.009,0 -0.013,0l-0.024,0c-0.008,0 -0.014,0.001 -0.018,0.003l-0.05,0c-0.005,0 -0.011,-0 -0.018,-0.001c-0.006,-0.001 -0.013,-0.004 -0.02,-0.008l-0.007,-0.007c-0.004,-0.008 -0.008,-0.011 -0.011,-0.012l-0.011,-0.003l0,-0.011Z" style="fill:rgb(102,208,221);fill-rule:nonzero;"/>
                    </g>
                    <g transform="matrix(109.263,0,0,109.263,247.868,0)">
                        <path d="M0.055,-0.033c-0.006,-0.005 -0.009,-0.012 -0.012,-0.019c-0.002,-0.007 -0.007,-0.013 -0.016,-0.017c-0.001,-0.01 -0.003,-0.021 -0.005,-0.034c-0.002,-0.013 -0.005,-0.026 -0.007,-0.039c-0.002,-0.013 -0.004,-0.027 -0.005,-0.04c-0.001,-0.013 -0,-0.026 0.002,-0.037c0.001,-0.006 0.003,-0.011 0.006,-0.016c0.003,-0.006 0.006,-0.011 0.009,-0.015c0.003,-0.005 0.005,-0.01 0.007,-0.016c0.001,-0.005 0.001,-0.01 0,-0.015c0.004,-0.001 0.007,-0.003 0.008,-0.007c0,-0.003 0.004,-0.004 0.009,-0.003c0.004,-0.014 0.009,-0.028 0.014,-0.04c0.006,-0.012 0.011,-0.024 0.017,-0.036c0.006,-0.012 0.012,-0.024 0.018,-0.036c0.006,-0.012 0.012,-0.025 0.017,-0.04c-0.011,-0.011 -0.019,-0.022 -0.024,-0.034c-0.005,-0.012 -0.008,-0.024 -0.011,-0.037c-0.003,-0.012 -0.005,-0.025 -0.006,-0.037c-0.001,-0.013 -0.004,-0.026 -0.008,-0.039c0.008,-0.012 0.018,-0.021 0.029,-0.029c0.011,-0.007 0.023,-0.013 0.036,-0.018c0.014,-0.005 0.028,-0.009 0.044,-0.012c0.015,-0.003 0.032,-0.006 0.05,-0.01c0.031,-0.01 0.059,-0.018 0.084,-0.023c0.024,-0.006 0.048,-0.01 0.072,-0.014c0.023,-0.003 0.048,-0.007 0.073,-0.01c0.025,-0.002 0.055,-0.007 0.088,-0.013c0.001,0.002 0.002,0.003 0.003,0.003l0.007,0c0.002,0.005 0.005,0.007 0.01,0.007c0,-0.002 0,-0.004 -0,-0.005c-0,-0.002 -0.001,-0.003 -0.001,-0.005c0.002,0 0.004,0.001 0.006,0.001c0.002,0.001 0.004,0.002 0.006,0.002c0.001,0.001 0.003,0.001 0.004,-0c0.001,-0.001 0.002,-0.003 0.001,-0.007c0.008,0.014 0.018,0.025 0.03,0.034c0.013,0.009 0.026,0.016 0.041,0.023c0.001,0.006 0.001,0.01 0.001,0.013c-0,0.002 -0.001,0.005 -0.002,0.007c-0,0.002 -0.001,0.005 -0.001,0.008c0,0.003 0.001,0.007 0.002,0.012c-0.01,0.018 -0.022,0.031 -0.035,0.041c-0.014,0.01 -0.028,0.017 -0.043,0.023c-0.015,0.005 -0.031,0.009 -0.047,0.011c-0.017,0.003 -0.034,0.006 -0.051,0.009c-0.017,0.002 -0.035,0.007 -0.052,0.012c-0.018,0.005 -0.035,0.013 -0.052,0.023c-0.005,-0.002 -0.01,-0.003 -0.014,-0.002c-0.004,0 -0.009,0.001 -0.013,0.002c-0.005,0.001 -0.01,0.003 -0.015,0.004c-0.006,0.001 -0.013,0.001 -0.02,0c-0.006,0.005 -0.012,0.008 -0.018,0.01c-0.007,0.002 -0.014,0.004 -0.021,0.006c0.003,0.007 0.004,0.014 0.004,0.021c-0,0.007 0,0.014 0.002,0.019c0.028,0.002 0.058,0.002 0.091,-0.001c0.033,-0.003 0.066,-0.005 0.098,-0.006c0,0.003 0,0.005 -0.001,0.007c-0.001,0.001 -0.002,0.003 -0.002,0.007c0.006,0.003 0.011,0.008 0.017,0.014c0.005,0.006 0.01,0.012 0.016,0.017c0.005,0.006 0.011,0.01 0.017,0.014c0.006,0.004 0.012,0.005 0.02,0.004c0.003,0.007 0.006,0.014 0.007,0.021c0.001,0.007 0,0.015 -0.003,0.022c-0.013,0.009 -0.026,0.017 -0.038,0.026c-0.012,0.009 -0.025,0.017 -0.039,0.024c-0.013,0.007 -0.027,0.013 -0.043,0.018c-0.016,0.004 -0.033,0.006 -0.051,0.006l-0.008,-0c-0.002,-0 -0.005,-0.002 -0.008,-0.004c-0.007,0.003 -0.016,0.004 -0.026,0.003c-0.011,-0.001 -0.02,0 -0.027,0.004c-0.009,-0.004 -0.02,-0.005 -0.032,-0.005c-0.012,-0 -0.022,-0.002 -0.032,-0.005c-0.011,0.017 -0.022,0.034 -0.033,0.053c-0.01,0.019 -0.019,0.038 -0.027,0.059c0.027,0.004 0.049,0.006 0.066,0.005c0.018,-0.001 0.034,-0.002 0.05,-0.004c0.016,-0.002 0.032,-0.004 0.048,-0.006c0.017,-0.002 0.037,-0.002 0.061,-0.002c0.017,-0.008 0.035,-0.013 0.057,-0.016c0.021,-0.003 0.04,-0.007 0.059,-0.013c0.006,0.002 0.012,0.006 0.016,0.011c0.005,0.006 0.009,0.011 0.013,0.017c0.005,0.005 0.009,0.01 0.014,0.014c0.004,0.004 0.01,0.005 0.017,0.004c0.003,0.003 0.006,0.007 0.007,0.012c0.001,0.004 0.002,0.008 0.003,0.012c0,0.004 0.002,0.007 0.004,0.01c0.002,0.002 0.005,0.003 0.011,0.002c-0.013,0.025 -0.027,0.045 -0.042,0.059c-0.015,0.013 -0.032,0.024 -0.052,0.031c-0.019,0.008 -0.04,0.013 -0.064,0.017c-0.024,0.003 -0.05,0.008 -0.08,0.013c-0.007,0.001 -0.013,0.001 -0.018,-0c-0.005,-0.002 -0.01,-0.003 -0.015,-0.003c-0.018,0.003 -0.04,0.007 -0.065,0.01c-0.025,0.003 -0.05,0.004 -0.075,0.004c-0.026,-0.001 -0.05,-0.004 -0.074,-0.01c-0.023,-0.006 -0.043,-0.016 -0.058,-0.031Z" style="fill:rgb(102,208,221);fill-rule:nonzero;"/>
                    </g>
                    <g transform="matrix(109.263,0,0,109.263,316.371,0)">
                        <path d="M0.088,0.014c-0.007,-0 -0.017,-0.001 -0.03,-0.003c-0.011,-0.011 -0.02,-0.026 -0.028,-0.046c-0.008,-0.019 -0.015,-0.039 -0.019,-0.061c-0.004,-0.022 -0.006,-0.044 -0.006,-0.066c0.001,-0.021 0.004,-0.041 0.012,-0.058c-0,-0 0.003,-0.008 0.009,-0.023c0.006,-0.015 0.014,-0.034 0.024,-0.057c0.01,-0.023 0.021,-0.049 0.033,-0.077c0.012,-0.029 0.025,-0.057 0.037,-0.084c0.012,-0.027 0.024,-0.052 0.036,-0.075c0.011,-0.022 0.021,-0.04 0.03,-0.052c0.005,-0.009 0.011,-0.018 0.016,-0.026c0.005,-0.009 0.009,-0.017 0.014,-0.024c0.007,-0.011 0.014,-0.022 0.02,-0.032c0.006,-0.011 0.013,-0.02 0.02,-0.028c0.008,-0.008 0.016,-0.015 0.025,-0.021c0.009,-0.006 0.02,-0.012 0.033,-0.016c0.008,0.003 0.015,0.006 0.021,0.01c0.006,0.003 0.011,0.008 0.016,0.013l0.003,0.014c0.001,0.004 0.003,0.007 0.006,0.009c0.003,0.002 0.005,0.002 0.007,0.002c0.009,0.002 0.016,0.005 0.022,0.007c0.006,0.002 0.013,0.004 0.02,0.004c0.003,0.004 0.005,0.008 0.008,0.012c0.002,0.004 0.004,0.007 0.007,0.011c0.013,0.019 0.024,0.037 0.032,0.054c0.009,0.018 0.009,0.037 0,0.058l0.001,0.011c0.003,0.004 0.005,0.009 0.005,0.012c-0,0.004 -0.001,0.01 -0.002,0.017c-0.001,0.005 -0.001,0.011 -0.002,0.017c0,0.006 0.001,0.013 0.003,0.02l0.007,0.008c0.01,0.005 0.02,0.008 0.03,0.008c0.013,-0 0.025,-0.003 0.035,-0.009c0.011,-0.006 0.02,-0.012 0.029,-0.018c0.008,-0.005 0.014,-0.009 0.021,-0.012c0.006,-0.004 0.012,-0.006 0.018,-0.007c0.013,-0.013 0.026,-0.025 0.037,-0.035c0.012,-0.01 0.023,-0.02 0.036,-0.031c0.023,-0.018 0.046,-0.039 0.068,-0.061c0.022,-0.021 0.04,-0.049 0.053,-0.081c0.007,-0.005 0.015,-0.007 0.024,-0.007c0.009,0 0.019,0.002 0.028,0.005c0.009,0.004 0.018,0.008 0.027,0.013c0.002,0.001 0.004,0.002 0.005,0.003c0.002,0 0.004,0.001 0.006,0.002c-0,0.008 0.003,0.014 0.009,0.02c0.003,0.003 0.005,0.004 0.006,0.005c0.002,0.001 0.003,0.001 0.004,0.002c0.006,0.003 0.01,0.006 0.013,0.009c0.004,0.002 0.007,0.006 0.009,0.01c0.006,0.018 0.015,0.032 0.029,0.041c-0.001,0.008 -0.001,0.015 0.001,0.021c0.002,0.007 0.004,0.014 0.007,0.02c0.001,0.003 0.002,0.005 0.003,0.008c0,0.002 0.001,0.005 0.003,0.008l-0.022,-0.002l0.003,0.022c0.002,0.011 0.001,0.023 -0.002,0.037c-0.004,0.013 -0.008,0.024 -0.012,0.032c0.001,0.019 0.001,0.035 0.001,0.046c0,0.012 -0,0.022 -0.001,0.032c-0.002,0.01 -0.004,0.019 -0.007,0.028c-0.003,0.009 -0.006,0.018 -0.011,0.028c0.003,0.049 -0.003,0.094 -0.017,0.135c-0.014,0.041 -0.029,0.08 -0.046,0.116c-0.001,0.004 -0.003,0.008 -0.005,0.012c-0.002,0.004 -0.004,0.008 -0.005,0.012c-0.007,0.002 -0.014,0.004 -0.02,0.007c-0.006,0.002 -0.011,0.005 -0.016,0.009c-0.008,0.004 -0.015,0.008 -0.022,0.011c-0.007,0.003 -0.015,0.004 -0.022,0.004c-0.032,-0.022 -0.048,-0.062 -0.049,-0.118c-0.001,-0.056 0.011,-0.127 0.036,-0.214c0.005,-0.003 0.006,-0.008 0.006,-0.014l-0,-0.011l-0.01,-0.001c-0.003,-0 -0.006,0 -0.009,0.001c-0.002,0.001 -0.004,0.003 -0.006,0.009c-0.02,0.015 -0.043,0.03 -0.067,0.046c-0.025,0.016 -0.05,0.031 -0.076,0.044c-0.026,0.013 -0.053,0.024 -0.08,0.033c-0.027,0.009 -0.053,0.013 -0.078,0.013c-0.065,0 -0.115,-0.033 -0.148,-0.099l-0.009,-0.018l-0.009,0.016c-0.002,0.003 -0.006,0.009 -0.011,0.019c-0.005,0.009 -0.009,0.02 -0.014,0.033c-0.005,0.012 -0.009,0.025 -0.013,0.038c-0.004,0.013 -0.005,0.024 -0.003,0.034c-0.008,0.007 -0.016,0.015 -0.023,0.024c-0.008,0.009 -0.013,0.02 -0.016,0.032c-0.002,0.003 -0.002,0.006 -0.001,0.009c0,0.003 0.001,0.006 0.002,0.009c-0,0.005 -0.001,0.008 -0.003,0.01c-0.002,0.002 -0.005,0.004 -0.007,0.006c-0.003,0.003 -0.007,0.006 -0.01,0.01c-0.003,0.004 -0.006,0.008 -0.009,0.012c-0.001,0.004 -0.002,0.008 -0.003,0.012c-0,0.005 -0.001,0.008 -0.002,0.012c0,0.007 -0.001,0.012 -0.003,0.014c-0.006,0.014 -0.012,0.025 -0.017,0.034c-0.005,0.009 -0.009,0.015 -0.014,0.02c-0.004,0.005 -0.009,0.008 -0.014,0.009c-0.005,0.002 -0.011,0.003 -0.017,0.003Z" style="fill:rgb(102,208,221);fill-rule:nonzero;"/>
                    </g>
                    <g transform="matrix(109.263,0,0,109.263,422.753,0)">
                        <path d="M0.044,-0.275c0.001,-0.003 0.002,-0.004 0.004,-0.004c0.003,0.001 0.005,0 0.007,-0c-0.006,-0.006 -0.009,-0.013 -0.01,-0.021c-0.001,-0.009 -0.005,-0.016 -0.01,-0.022c0.001,-0.004 0.003,-0.007 0.004,-0.01c0.001,-0.003 0.003,-0.005 0.008,-0.004c-0.002,-0.014 -0.002,-0.028 0.001,-0.04c0.002,-0.012 0.007,-0.024 0.012,-0.035c0.006,-0.011 0.012,-0.022 0.02,-0.033c0.007,-0.011 0.014,-0.021 0.022,-0.033c0.005,-0.001 0.009,-0 0.01,0.002c0.002,0.002 0.004,0.002 0.007,-0.002c0.011,-0.007 0.018,-0.015 0.022,-0.023c0.004,-0.009 0.005,-0.019 0.005,-0.029c0.006,-0.017 0.013,-0.034 0.021,-0.051c0.007,-0.016 0.016,-0.032 0.025,-0.046c0.01,-0.014 0.021,-0.027 0.032,-0.038c0.011,-0.01 0.023,-0.019 0.036,-0.024c0.009,-0.008 0.02,-0.015 0.034,-0.022c0.014,-0.006 0.029,-0.012 0.045,-0.015c0.016,-0.004 0.033,-0.006 0.05,-0.006c0.017,-0 0.032,0.002 0.047,0.005c0.003,0.002 0.005,0.001 0.005,-0.002c0.001,-0.003 0.003,-0.004 0.005,-0.004c0.033,0.003 0.062,0.01 0.088,0.019c0.025,0.009 0.047,0.022 0.066,0.038c0.012,0.02 0.024,0.041 0.035,0.063c0.011,0.023 0.019,0.046 0.026,0.07c0.006,0.025 0.009,0.05 0.008,0.076c-0.001,0.026 -0.006,0.052 -0.017,0.078c-0.022,0.029 -0.05,0.052 -0.083,0.069c-0.032,0.017 -0.067,0.032 -0.105,0.043c-0.037,0.012 -0.076,0.021 -0.116,0.028c-0.04,0.007 -0.079,0.015 -0.117,0.023c0.001,0.018 0.001,0.037 0,0.057c-0,0.019 -0.002,0.039 -0.006,0.059c-0.003,0.02 -0.009,0.039 -0.016,0.058c-0.006,0.019 -0.016,0.037 -0.027,0.053c-0.013,-0.001 -0.027,0.001 -0.041,0.004c-0.014,0.003 -0.026,0.006 -0.037,0.01c-0.006,-0.004 -0.011,-0.007 -0.016,-0.01c-0.005,-0.003 -0.011,-0.004 -0.018,-0.005c0.002,-0.008 0,-0.016 -0.005,-0.024c-0.006,-0.009 -0.011,-0.017 -0.017,-0.025c-0.005,-0.008 -0.009,-0.017 -0.01,-0.025c-0.002,-0.008 0.002,-0.015 0.011,-0.022c-0.005,-0.004 -0.008,-0.011 -0.008,-0.021c0.003,0.002 0.006,0.004 0.01,0.004c-0.002,-0.012 -0,-0.026 0.004,-0.042c0.004,-0.017 0.008,-0.033 0.011,-0.049c0.003,-0.016 0.003,-0.03 0.001,-0.044c-0.002,-0.013 -0.009,-0.023 -0.023,-0.028Zm0.254,-0.229c-0.003,0.007 -0.005,0.014 -0.006,0.019c-0.002,0.006 -0.004,0.011 -0.006,0.015c-0.002,0.005 -0.011,0.024 -0.014,0.03c0.002,0.003 0.004,0.006 0.008,0.008c0.004,0.002 0.007,0.005 0.008,0.009c0.009,-0.004 0.018,-0.008 0.027,-0.01c0.01,-0.002 0.019,-0.004 0.028,-0.005c0.009,-0.002 0.018,-0.003 0.027,-0.005c0.009,-0.002 0.019,-0.006 0.028,-0.01c0.01,-0.005 0.02,-0.008 0.031,-0.011c0.011,-0.003 0.022,-0.006 0.032,-0.01c0.01,-0.003 0.02,-0.007 0.03,-0.011c0.01,-0.004 0.018,-0.01 0.026,-0.017c-0.01,-0.008 -0.023,-0.016 -0.041,-0.022c-0.019,-0.007 -0.038,-0.011 -0.059,-0.013c-0.022,-0.001 -0.043,0 -0.064,0.005c-0.021,0.004 -0.04,0.014 -0.055,0.028Z" style="fill:rgb(102,208,221);fill-rule:nonzero;"/>
                    </g>
                    <g transform="matrix(109.263,0,0,109.263,492.643,0)">
                        <path d="M0.056,-0.036c-0.003,-0.003 -0.005,-0.006 -0.007,-0.009c-0.002,-0.004 -0.004,-0.009 -0.005,-0.015c-0.009,-0.011 -0.016,-0.023 -0.022,-0.038c-0.005,-0.014 -0.008,-0.029 -0.01,-0.044c-0.002,-0.015 -0.003,-0.031 -0.001,-0.046c0.001,-0.016 0.003,-0.031 0.007,-0.044c0.002,-0.007 0.003,-0.014 0.004,-0.021c0.004,-0.012 0.007,-0.025 0.01,-0.037c0.003,-0.012 0.008,-0.022 0.015,-0.029c-0.003,-0.007 -0.002,-0.015 0.001,-0.024c0.003,-0.008 0.006,-0.016 0.01,-0.023c0.001,-0.002 0.002,-0.004 0.003,-0.006c0,-0.001 0.001,-0.003 0.001,-0.004c0.008,-0.023 0.016,-0.045 0.023,-0.066c0.008,-0.021 0.015,-0.041 0.022,-0.061c0.013,-0.036 0.026,-0.071 0.038,-0.105c0.012,-0.035 0.023,-0.072 0.033,-0.111c0.005,-0.004 0.009,-0.006 0.013,-0.008c0.002,-0 0.003,-0.001 0.005,-0.002c0.002,-0 0.005,-0 0.007,-0c0.014,0.007 0.03,0.013 0.048,0.02c0.019,0.006 0.035,0.009 0.048,0.009l0.016,0.014c0.009,0.01 0.016,0.02 0.022,0.031c0.007,0.011 0.008,0.025 0.006,0.042c-0.004,0.006 -0.007,0.009 -0.01,0.01c-0.004,0.015 -0.008,0.029 -0.013,0.04c-0.004,0.011 -0.009,0.022 -0.013,0.033c-0.006,0.011 -0.01,0.023 -0.015,0.035c-0.005,0.012 -0.008,0.026 -0.012,0.043c-0.004,0.004 -0.006,0.008 -0.007,0.012c-0.001,0.003 -0.002,0.006 -0.003,0.009c-0.002,0.004 -0.003,0.008 -0.005,0.013c-0.002,0.004 -0.005,0.008 -0.009,0.011c-0.003,0.02 -0.007,0.036 -0.012,0.049c-0.005,0.013 -0.01,0.025 -0.015,0.038c-0.01,0.022 -0.018,0.045 -0.026,0.068c-0.008,0.022 -0.012,0.048 -0.014,0.076c0.008,-0.002 0.015,-0.003 0.022,-0.003c0.008,0 0.017,0.002 0.024,0.004c0.024,-0.012 0.049,-0.019 0.077,-0.021c0.028,-0.003 0.055,-0.005 0.083,-0.005c0.022,-0 0.043,-0.001 0.063,-0.003c0.007,0.004 0.011,0.007 0.013,0.007c0.002,0.001 0.005,0.001 0.009,0.001l0.006,-0c0.002,-0 0.005,0 0.008,0.001c0.009,0.009 0.018,0.015 0.027,0.019c0.008,0.003 0.017,0.007 0.027,0.01c0.008,0.003 0.017,0.007 0.025,0.01c0.008,0.004 0.016,0.009 0.024,0.014l0.008,0.05c0.006,0.007 0.008,0.012 0.007,0.015c0,0.005 -0.001,0.01 -0.004,0.014l0.002,0.012c-0.012,0.003 -0.02,0.006 -0.024,0.009c-0.004,0.002 -0.008,0.006 -0.013,0.011c-0.007,0 -0.014,0.001 -0.02,0.001c-0.013,-0 -0.027,0.002 -0.04,0.006c-0.02,-0.008 -0.041,-0.011 -0.065,-0.011c-0.009,-0 -0.018,0 -0.028,0.001c-0.009,0 -0.018,0.001 -0.027,0.003c-0.01,0.001 -0.02,0.002 -0.03,0.003c-0.009,0.001 -0.019,0.002 -0.029,0.002c-0.008,0.001 -0.013,0.002 -0.017,0.003c-0.003,0 -0.006,0.001 -0.009,0.002c-0.023,0.008 -0.046,0.015 -0.072,0.022c-0.026,0.007 -0.052,0.011 -0.078,0.011c-0.038,-0 -0.069,-0.01 -0.093,-0.03c-0.002,-0.005 -0.004,-0.009 -0.005,-0.011c-0.002,-0.002 -0.003,-0.005 -0.004,-0.007Z" style="fill:rgb(102,208,221);fill-rule:nonzero;"/>
                    </g>
                    <g transform="matrix(109.263,0,0,109.263,602.225,0)">
                        <path d="M0.498,-0.291c0.01,0.001 0.017,0.004 0.021,0.007c0.004,0.003 0.007,0.007 0.008,0.012c0.002,0.005 0.002,0.01 0.002,0.016c-0.001,0.006 -0.001,0.012 -0.001,0.018c-0.009,0.006 -0.022,0.012 -0.036,0.016c-0.015,0.004 -0.031,0.007 -0.049,0.01c-0.017,0.002 -0.036,0.004 -0.055,0.004c-0.019,0.001 -0.038,0.002 -0.057,0.003c-0.003,0.018 -0.007,0.038 -0.012,0.058c-0.004,0.021 -0.012,0.045 -0.022,0.075c-0.009,0.02 -0.02,0.034 -0.031,0.042c-0.012,0.008 -0.024,0.012 -0.037,0.012c-0.013,0 -0.026,-0.003 -0.039,-0.009c-0.013,-0.006 -0.025,-0.013 -0.037,-0.021c-0.001,-0.008 -0.001,-0.018 -0.001,-0.03c0.001,-0.012 0.002,-0.024 0.003,-0.038c0.002,-0.013 0.003,-0.026 0.006,-0.04c0.002,-0.013 0.004,-0.026 0.006,-0.039c-0.021,0.003 -0.038,0.006 -0.05,0.008c-0.013,0.003 -0.022,0.005 -0.027,0.007c-0.013,-0 -0.022,-0.003 -0.029,-0.007c-0.008,-0.003 -0.013,-0.008 -0.018,-0.014c-0.005,-0.005 -0.008,-0.012 -0.012,-0.019c-0.003,-0.007 -0.007,-0.014 -0.011,-0.022c0.002,-0.005 0.003,-0.013 0.001,-0.023c-0.002,-0.009 -0.005,-0.017 -0.011,-0.022c0.005,-0.001 0.009,-0.005 0.011,-0.011c0.003,-0.007 0.003,-0.012 0,-0.015c0.011,-0.003 0.022,-0.005 0.034,-0.006c0.012,-0.001 0.024,-0.002 0.036,-0.002c0.012,-0.001 0.023,-0.002 0.033,-0.004c0.01,-0.001 0.02,-0.004 0.027,-0.008c0.009,-0 0.043,-0.001 0.052,-0.001c0.002,-0.008 0.002,-0.016 -0.001,-0.021c-0.002,-0.006 -0.003,-0.012 -0.002,-0.016c0.001,-0.003 0.004,-0.005 0.008,-0.006c0.003,-0.001 0.005,-0.004 0.006,-0.007c0.002,-0.008 0.003,-0.015 0.002,-0.02c-0.001,-0.005 -0,-0.011 0.004,-0.019c0.003,-0.005 0.007,-0.013 0.013,-0.024c0.005,-0.011 0.008,-0.023 0.006,-0.035c0.007,-0.005 0.013,-0.01 0.018,-0.016c0.006,-0.006 0.012,-0.011 0.018,-0.016c0.006,-0.005 0.013,-0.009 0.02,-0.013c0.008,-0.003 0.017,-0.005 0.028,-0.005c0.006,0.007 0.01,0.014 0.013,0.02c0.003,0.007 0.005,0.013 0.008,0.019c0.002,0.006 0.006,0.011 0.01,0.016c0.004,0.006 0.011,0.011 0.019,0.015c0,0.006 -0.001,0.013 -0.003,0.022c-0.002,0.008 -0.003,0.016 -0.005,0.025c-0.001,0.008 -0.001,0.016 -0.001,0.022c0.001,0.007 0.004,0.011 0.01,0.014c-0.003,0.007 -0.005,0.014 -0.007,0.021c-0.003,0.007 -0.005,0.014 -0.007,0.02c0.011,0.002 0.024,0.003 0.038,0.004c0.015,-0 0.028,0.001 0.041,0.003c0.013,0.003 0.025,0.007 0.036,0.012c0.011,0.006 0.018,0.015 0.023,0.028Z" style="fill:rgb(219,189,48);fill-rule:nonzero;"/>
                    </g>
                    <g transform="matrix(109.263,0,0,109.263,705.94,0)">
                        <path d="M0.027,-0.084c-0.003,0.001 -0.006,-0.002 -0.008,-0.007c-0.003,-0.006 -0.006,-0.011 -0.009,-0.016l0.011,-0c-0.005,-0.015 -0.006,-0.028 -0.004,-0.04c0.002,-0.012 0.005,-0.024 0.008,-0.035c0.004,-0.012 0.006,-0.023 0.009,-0.033c0.002,-0.011 0.001,-0.022 -0.004,-0.034c0.004,0.002 0.006,0.001 0.008,-0.002c0.001,-0.004 0.003,-0.009 0.004,-0.014c0,-0.006 0.001,-0.012 0,-0.018c0,-0.006 -0,-0.011 -0.001,-0.015c0.008,-0.02 0.015,-0.041 0.02,-0.062c0.005,-0.022 0.009,-0.043 0.013,-0.064c0.004,-0.021 0.009,-0.042 0.013,-0.062c0.005,-0.02 0.012,-0.038 0.019,-0.056c0.01,-0.001 0.019,-0 0.029,0.003c0.01,0.004 0.017,0.008 0.02,0.014c0.02,-0.016 0.038,-0.035 0.054,-0.057c0.016,-0.022 0.031,-0.044 0.047,-0.065c0.016,-0.021 0.034,-0.04 0.055,-0.056c0.02,-0.016 0.045,-0.026 0.075,-0.029c0.015,0.011 0.033,0.023 0.052,0.035c0.02,0.013 0.036,0.029 0.048,0.048c0.006,0.003 0.025,0.017 0.031,0.02l-0,0.015c0.009,0.008 0.016,0.018 0.023,0.03c0.006,0.011 0.011,0.023 0.016,0.036c0.005,0.012 0.01,0.025 0.014,0.038c0.005,0.013 0.01,0.025 0.016,0.036c-0.001,0.004 -0.002,0.008 -0.002,0.011c0.001,0.003 0.001,0.005 0.002,0.008c0.001,0.003 0.002,0.007 0.003,0.01c0.001,0.004 0.001,0.008 0.001,0.013c-0.003,0.035 -0.014,0.063 -0.034,0.084c-0.02,0.021 -0.044,0.038 -0.072,0.052c-0.028,0.013 -0.059,0.024 -0.09,0.034c-0.032,0.009 -0.061,0.019 -0.087,0.031c-0,0.002 0.001,0.003 0.004,0.003c0.003,0 0.004,0.002 0.002,0.006c0.02,0.012 0.035,0.021 0.046,0.029c0.011,0.007 0.021,0.013 0.03,0.018c0.01,0.005 0.02,0.009 0.031,0.012c0.012,0.003 0.028,0.007 0.048,0.012c0.02,0.004 0.036,0.008 0.047,0.011c0.012,0.003 0.022,0.005 0.031,0.007c0.009,0.001 0.019,0.003 0.029,0.004c0.011,0.001 0.025,0.003 0.042,0.005c0.007,0.007 0.013,0.016 0.018,0.025c0.004,0.01 0.008,0.02 0.01,0.03c0.001,0.009 0.002,0.019 0.001,0.027c-0.001,0.009 -0.004,0.016 -0.008,0.021c0,0.003 0.002,0.004 0.005,0.004c0.003,-0 0.006,-0 0.009,0c-0.004,0.004 -0.008,0.008 -0.011,0.012c-0.004,0.005 -0.007,0.009 -0.01,0.014c-0.003,0.004 -0.007,0.009 -0.011,0.012c-0.005,0.004 -0.01,0.007 -0.016,0.007c-0.024,0.009 -0.054,0.01 -0.09,0.001c-0.037,-0.008 -0.083,-0.023 -0.14,-0.045c-0.028,-0.01 -0.051,-0.019 -0.068,-0.028c-0.018,-0.008 -0.033,-0.017 -0.046,-0.025c-0.013,-0.008 -0.025,-0.017 -0.036,-0.026c-0.011,-0.01 -0.024,-0.021 -0.038,-0.034c-0.002,0.001 -0.004,0.002 -0.004,0.004c-0,0.002 -0.001,0.003 -0.003,0.004c-0.004,0.026 -0.009,0.047 -0.015,0.063c-0.007,0.017 -0.017,0.033 -0.03,0.05c-0.011,-0.002 -0.018,-0.001 -0.021,0.003c-0.004,0.004 -0.008,0.008 -0.013,0.011c-0.007,0.001 -0.012,0.001 -0.015,-0.001c-0.003,-0.001 -0.006,-0.003 -0.009,-0.005c-0.002,-0.002 -0.005,-0.004 -0.009,-0.006c-0.003,-0.002 -0.008,-0.002 -0.015,-0.002c-0.002,-0.006 -0.004,-0.011 -0.006,-0.017c-0.002,-0.005 -0.007,-0.008 -0.016,-0.007c0.002,-0.006 0.003,-0.011 0.002,-0.015c-0,-0.005 -0.001,-0.009 -0.003,-0.012c-0.001,-0.004 -0.002,-0.007 -0.003,-0.011c-0.001,-0.004 -0.001,-0.009 0.001,-0.014Zm0.327,-0.446c-0.009,0.012 -0.018,0.023 -0.029,0.033c-0.01,0.011 -0.02,0.021 -0.031,0.032c-0.01,0.01 -0.019,0.022 -0.026,0.035c-0.008,0.013 -0.014,0.028 -0.017,0.045c0.027,-0.003 0.056,-0.011 0.086,-0.023c0.03,-0.012 0.058,-0.023 0.085,-0.034c-0.003,-0.024 -0.012,-0.044 -0.026,-0.058c-0.013,-0.015 -0.028,-0.025 -0.042,-0.03Z" style="fill:rgb(102,208,221);fill-rule:nonzero;"/>
                    </g>
                    <g transform="matrix(109.263,0,0,109.263,776.576,0)">
                        <path d="M0.517,-0.082c-0.004,0.011 -0.01,0.022 -0.017,0.034c-0.008,0.011 -0.017,0.021 -0.027,0.03c-0.01,0.009 -0.021,0.016 -0.034,0.022c-0.012,0.006 -0.025,0.009 -0.039,0.01c-0.008,-0.002 -0.014,-0.004 -0.017,-0.007c-0.003,-0.002 -0.006,-0.004 -0.009,-0.006c-0.002,-0.001 -0.008,-0.005 -0.01,-0.006l-0.011,-0.005l0.003,-0.012c0.002,-0.006 0.001,-0.01 -0.001,-0.013c-0.001,-0.003 -0.005,-0.007 -0.011,-0.012c-0.002,-0.002 -0.004,-0.004 -0.006,-0.006c-0.002,-0.002 -0.004,-0.004 -0.005,-0.006l-0.017,-0.018l0.027,-0.007c0.016,-0.005 0.027,-0.01 0.032,-0.018c0.006,-0.007 0.008,-0.019 0.007,-0.036c-0.013,-0.002 -0.024,-0.003 -0.033,-0.001c-0.009,0.002 -0.018,0.005 -0.027,0.007c-0.011,0.003 -0.023,0.006 -0.035,0.008c-0.012,0.003 -0.026,0.004 -0.04,0.004c-0.005,-0 -0.01,-0 -0.015,-0.001c-0.004,0 -0.009,-0 -0.014,-0.001l-0.01,-0.002c-0.001,-0.007 -0.003,-0.011 -0.004,-0.012c-0.001,-0.001 -0.003,-0.002 -0.004,-0.004c-0.003,-0.003 -0.006,-0.007 -0.01,-0.013c-0.004,-0.005 -0.004,-0.012 -0.002,-0.021c-0.004,-0.006 -0.006,-0.012 -0.006,-0.017c-0.004,0.007 -0.007,0.016 -0.009,0.024l-0.004,0.01l-0.01,0.002c-0.001,0 -0.002,0.002 -0.003,0.004c-0,0.002 -0.001,0.004 -0.001,0.005l-0.005,0.017c-0.001,0.001 -0.006,0.006 -0.007,0.007c-0.002,0.006 -0.003,0.012 -0.005,0.018c-0.002,0.005 -0.004,0.011 -0.006,0.016c-0.003,0.009 -0.006,0.017 -0.008,0.025c-0.003,0.008 -0.004,0.016 -0.003,0.024l-0.004,0.011c-0.003,0.004 -0.007,0.007 -0.011,0.009c-0.003,0.002 -0.007,0.004 -0.011,0.006c-0.002,0.002 -0.003,0.003 -0.006,0.004c-0.002,0.001 -0.004,0.002 -0.005,0.002l-0.003,0.011l-0.012,0.002c-0.007,0.001 -0.012,0.002 -0.015,0.003c-0.003,0 -0.006,0.001 -0.01,0.001l-0.01,-0.001c-0.007,-0.006 -0.013,-0.011 -0.016,-0.014c-0.004,-0.004 -0.009,-0.007 -0.014,-0.011c-0.006,-0.007 -0.009,-0.013 -0.01,-0.017c-0.001,-0.004 -0.001,-0.008 -0.002,-0.011c-0.001,-0.004 -0.002,-0.007 -0.002,-0.01c-0.001,-0.002 -0.001,-0.004 -0.003,-0.006l-0.012,-0.011l0.01,-0.009l0.001,-0.017c0.013,-0.033 0.027,-0.065 0.042,-0.095c0.014,-0.031 0.03,-0.062 0.045,-0.094c0.005,-0.011 0.025,-0.052 0.031,-0.063c-0.001,-0.002 -0.001,-0.004 -0.001,-0.006c-0,-0.003 0,-0.006 0.001,-0.009c0.008,-0.011 0.014,-0.021 0.018,-0.03c0.005,-0.009 0.009,-0.018 0.014,-0.027c0.005,-0.011 0.01,-0.022 0.016,-0.032c0.005,-0.011 0.012,-0.021 0.021,-0.032l0.015,-0.007c0.002,-0.001 0.005,-0.002 0.007,-0.003c0.003,-0.001 0.006,-0.001 0.009,-0.001l0.015,0.002c0.018,-0.009 0.034,-0.02 0.048,-0.036c0.013,-0.015 0.027,-0.033 0.042,-0.055l0.009,-0.014l0.013,0.008c0.003,0.002 0.008,0.004 0.014,0.006c0.006,0.001 0.012,0.003 0.018,0.005c0.012,0.003 0.023,0.005 0.033,0.009c0.011,0.003 0.019,0.008 0.026,0.014c0.004,0.011 0.006,0.019 0.007,0.024c0,0.005 0.001,0.01 0.003,0.015c0.002,0.011 0.003,0.023 0.005,0.034c0.002,0.011 0.003,0.023 0.003,0.037c0.004,0.011 0.006,0.022 0.009,0.032c0.002,0.011 0.004,0.022 0.006,0.033c0.003,0.016 0.007,0.031 0.01,0.046c0.003,0.014 0.007,0.028 0.013,0.041c0.005,0 0.008,0 0.009,0.001c0.004,-0.001 0.007,-0.002 0.011,-0.003c0.003,-0.001 0.007,-0.001 0.012,-0.002l0.011,-0.001l0.003,0.01c0.001,0.003 0.004,0.006 0.01,0.01c0.009,0 0.015,0.002 0.019,0.005c0.004,0.003 0.007,0.006 0.01,0.009c0.003,0.003 0.006,0.005 0.008,0.006l0.015,0.006l-0.008,0.015c-0.006,0.011 -0.016,0.023 -0.028,0.033c-0.012,0.011 -0.025,0.02 -0.04,0.027c0,0.004 0.001,0.008 0.001,0.012c0.001,0.003 0.001,0.007 0.003,0.011c0.002,0.011 0.003,0.022 0.005,0.034c0.001,0.012 0.001,0.024 -0,0.036l-0.002,0.004Zm-0.283,-0.169c0.02,-0.001 0.038,-0.003 0.054,-0.004c0.016,-0.002 0.033,-0.005 0.053,-0.009c-0.005,-0.019 -0.01,-0.04 -0.015,-0.061c-0.005,-0.021 -0.011,-0.042 -0.016,-0.063l-0.006,0.01c-0.013,0.014 -0.026,0.029 -0.038,0.046c-0.012,0.017 -0.022,0.033 -0.031,0.048c-0.004,0.006 -0.007,0.012 -0.011,0.017c-0.004,0.006 -0.008,0.012 -0.011,0.018c0.004,-0.001 0.008,-0.001 0.011,-0.001c0.004,0 0.007,-0 0.01,-0.001Z" style="fill:rgb(102,208,221);fill-rule:nonzero;"/>
                    </g>
                    <g transform="matrix(109.263,0,0,109.263,840.064,0)">
                        <path d="M0.481,-0.264c-0,0.004 -0.001,0.006 -0.002,0.009c-0,0.002 -0.001,0.004 -0.001,0.006c-0.001,0.002 -0.001,0.004 -0.001,0.007l-0,0.012c-0.02,0.034 -0.045,0.063 -0.074,0.086c-0.03,0.024 -0.062,0.045 -0.098,0.062c-0.035,0.018 -0.072,0.035 -0.111,0.049c-0.038,0.015 -0.076,0.031 -0.112,0.048c-0.016,-0.004 -0.027,-0.011 -0.036,-0.02c-0.008,-0.009 -0.014,-0.02 -0.018,-0.032c-0.004,-0.012 -0.007,-0.025 -0.009,-0.04c-0.002,-0.014 -0.003,-0.029 -0.004,-0.045c0.002,-0.007 0.004,-0.013 0.008,-0.018c0.004,-0.005 0.005,-0.012 0.005,-0.021c0.006,-0.017 0.011,-0.034 0.016,-0.05c0.005,-0.016 0.008,-0.033 0.01,-0.05c0.002,-0.005 0.005,-0.009 0.01,-0.01c0.004,-0.032 0.004,-0.063 0.001,-0.096c-0.003,-0.032 -0.008,-0.062 -0.016,-0.09c0,-0.007 0.001,-0.011 0.002,-0.014c0.001,-0.003 0.001,-0.005 -0,-0.007c-0.001,-0.005 0.001,-0.007 0.005,-0.007l0.013,-0c0,-0.01 -0.001,-0.02 -0.005,-0.03c-0.004,-0.009 -0.007,-0.02 -0.01,-0.033c0.004,-0.01 0.007,-0.019 0.009,-0.029c0.001,-0.009 0.004,-0.017 0.008,-0.025c0.035,0.012 0.069,0.025 0.101,0.04c0.033,0.016 0.064,0.027 0.096,0.035c0.023,0.017 0.047,0.033 0.072,0.05c0.025,0.017 0.047,0.035 0.067,0.055c0.02,0.019 0.037,0.042 0.051,0.068c0.014,0.025 0.021,0.055 0.023,0.09Zm-0.231,0.054c0.014,-0.005 0.027,-0.011 0.041,-0.017c0.013,-0.005 0.025,-0.012 0.037,-0.02c0.011,-0.007 0.021,-0.016 0.03,-0.025c0.01,-0.01 0.017,-0.022 0.023,-0.036c-0.004,-0.007 -0.009,-0.014 -0.016,-0.021c-0.006,-0.006 -0.013,-0.012 -0.019,-0.017c-0.007,-0.006 -0.013,-0.011 -0.019,-0.017c-0.007,-0.006 -0.012,-0.013 -0.015,-0.022c-0.009,-0.001 -0.016,-0.004 -0.023,-0.007c-0.006,-0.004 -0.013,-0.007 -0.019,-0.011c-0.006,-0.003 -0.013,-0.007 -0.02,-0.01c-0.006,-0.003 -0.014,-0.005 -0.023,-0.006c-0.015,-0.007 -0.028,-0.012 -0.039,-0.016c-0.011,-0.003 -0.02,-0.007 -0.026,-0.012c-0.004,-0 -0.008,0.001 -0.011,0.003c0.007,0.024 0.012,0.048 0.015,0.069c0.003,0.022 0.005,0.044 0.005,0.066c0.001,0.022 -0,0.044 -0.003,0.067c-0.003,0.023 -0.006,0.047 -0.011,0.074c0.007,-0.001 0.013,-0.002 0.018,-0.004c0.006,-0.003 0.011,-0.005 0.017,-0.008c0.005,-0.002 0.011,-0.005 0.017,-0.007c0.007,-0.002 0.014,-0.004 0.022,-0.004c0.002,-0.004 0.005,-0.008 0.009,-0.01c0.003,-0.003 0.007,-0.006 0.01,-0.009Z" style="fill:rgb(102,208,221);fill-rule:nonzero;"/>
                    </g>
                    <g transform="matrix(109.263,0,0,109.263,894.375,0)">
                        <path d="M0.207,-0.068c0.003,0.019 0.002,0.034 -0.003,0.046c-0.006,0.011 -0.014,0.019 -0.024,0.024c-0.01,0.006 -0.021,0.009 -0.034,0.01c-0.014,0 -0.026,-0 -0.038,-0.002c-0.006,-0.009 -0.012,-0.021 -0.017,-0.034c-0.005,-0.014 -0.01,-0.028 -0.015,-0.043c-0.004,-0.015 -0.008,-0.029 -0.012,-0.043c-0.004,-0.015 -0.007,-0.027 -0.009,-0.038c0.003,-0.008 0.005,-0.017 0.006,-0.027c0.001,-0.01 0.002,-0.021 0.002,-0.031c0,-0.01 0.001,-0.021 0.001,-0.032c0,-0.011 0.001,-0.021 0.002,-0.031c0.005,-0.027 0.012,-0.053 0.02,-0.078c0.009,-0.024 0.016,-0.05 0.021,-0.077c0.002,-0.006 0.001,-0.011 -0.001,-0.016c-0.002,-0.006 -0.003,-0.011 -0.002,-0.015c0.001,-0.003 0.003,-0.004 0.006,-0.005c0.004,-0.001 0.006,-0.004 0.006,-0.007c0.002,-0.007 0.003,-0.013 0.002,-0.017c-0.001,-0.005 -0,-0.01 0.003,-0.017c0.003,-0.005 0.007,-0.013 0.012,-0.023c0.005,-0.01 0.007,-0.021 0.006,-0.032c0.006,-0.004 0.011,-0.008 0.016,-0.013c0.005,-0.006 0.011,-0.01 0.016,-0.014c0.006,-0.005 0.012,-0.008 0.019,-0.012c0.007,-0.003 0.015,-0.005 0.025,-0.005c0.005,0.007 0.008,0.014 0.01,0.022c0.002,0.008 0.003,0.016 0.005,0.023c0.002,0.008 0.004,0.015 0.007,0.022c0.004,0.007 0.009,0.012 0.017,0.016l-0,0.02c-0,0.008 0,0.015 0.001,0.023c0.001,0.007 0.002,0.014 0.004,0.02c0.003,0.007 0.006,0.011 0.012,0.013c-0.012,0.031 -0.023,0.062 -0.033,0.092c-0.01,0.031 -0.019,0.062 -0.025,0.093c-0.007,0.031 -0.011,0.062 -0.012,0.093c-0.002,0.031 0,0.063 0.006,0.095Z" style="fill:rgb(102,208,221);fill-rule:nonzero;"/>
                    </g>
                    <g transform="matrix(109.263,0,0,109.263,929.373,0)">
                        <path d="M0.339,-0.025c-0.01,-0.033 -0.024,-0.064 -0.043,-0.094c-0.018,-0.03 -0.036,-0.056 -0.053,-0.077c-0.027,0.02 -0.052,0.042 -0.076,0.067c-0.023,0.024 -0.045,0.05 -0.064,0.078c-0.002,0.014 -0.003,0.025 -0.005,0.034c-0.002,0.009 -0.006,0.016 -0.011,0.022c-0.004,0.006 -0.011,0.011 -0.018,0.015c-0.008,0.004 -0.017,0.009 -0.029,0.013c-0.021,-0.015 -0.037,-0.035 -0.047,-0.058c-0.01,-0.023 -0.011,-0.046 -0.004,-0.069c0.001,-0.016 0.005,-0.032 0.012,-0.048c0.008,-0.015 0.017,-0.03 0.028,-0.044c0.011,-0.014 0.022,-0.027 0.034,-0.04c0.013,-0.013 0.025,-0.025 0.036,-0.036c0.002,-0.006 0.005,-0.012 0.011,-0.017c0.005,-0.005 0.011,-0.009 0.017,-0.014c0.007,-0.005 0.013,-0.009 0.019,-0.015c0.006,-0.005 0.011,-0.011 0.015,-0.018c-0.004,-0.015 -0.013,-0.03 -0.026,-0.046c-0.013,-0.015 -0.025,-0.031 -0.036,-0.047c-0.002,-0.003 -0.004,-0.004 -0.008,-0.003c-0.003,0.001 -0.006,0.001 -0.007,-0.001c0.001,-0.008 -0.001,-0.017 -0.005,-0.027c-0.005,-0.01 -0.011,-0.018 -0.018,-0.026c0.001,-0.007 0.004,-0.015 0.006,-0.025c0.003,-0.011 0.002,-0.022 -0.002,-0.034c0,-0.005 0.001,-0.01 0.003,-0.015c0.002,-0.005 0.004,-0.01 0.006,-0.014c0.002,-0.004 0.004,-0.008 0.005,-0.013c0.001,-0.004 0.001,-0.008 -0.001,-0.012c0.009,-0.001 0.016,-0.001 0.023,0.001c0.006,0.002 0.012,0.004 0.018,0.007c0.006,0.003 0.011,0.005 0.016,0.006c0.005,0.001 0.01,0.001 0.015,-0.001c-0,0.003 -0,0.005 0,0.007c0.001,0.001 0.002,0.002 0.003,0.003c0.002,0 0.003,0.001 0.004,0.002c0.002,0.001 0.002,0.002 0.002,0.004c0.011,0.004 0.022,0.011 0.034,0.021c0.013,0.011 0.025,0.023 0.036,0.036c0.011,0.013 0.022,0.026 0.031,0.039c0.009,0.013 0.016,0.023 0.02,0.029c0.016,-0.009 0.033,-0.021 0.051,-0.034c0.018,-0.014 0.037,-0.027 0.057,-0.042c0.019,-0.014 0.039,-0.028 0.059,-0.04c0.02,-0.013 0.039,-0.023 0.058,-0.031c0.011,0.005 0.02,0.012 0.026,0.019c0.006,0.007 0.011,0.015 0.015,0.023c0.005,0.009 0.008,0.017 0.012,0.026c0.003,0.009 0.007,0.016 0.013,0.023c-0.005,0.011 -0.011,0.02 -0.017,0.028c-0.006,0.007 -0.01,0.016 -0.013,0.026c-0.014,0.005 -0.03,0.014 -0.049,0.026c-0.017,0.01 -0.037,0.024 -0.062,0.042c-0.024,0.017 -0.054,0.041 -0.088,0.07c0.008,0.009 0.014,0.018 0.019,0.027c0.006,0.008 0.01,0.015 0.013,0.021c0.003,0.007 0.006,0.014 0.009,0.02c0.006,0.004 0.011,0.009 0.014,0.015c0.004,0.006 0.008,0.012 0.012,0.018c0.003,0.006 0.007,0.012 0.012,0.018c0.004,0.005 0.01,0.01 0.017,0.013c0.004,0.02 0.01,0.037 0.017,0.052c0.007,0.016 0.01,0.031 0.01,0.048c-0.005,0.015 -0.011,0.027 -0.02,0.037c-0.009,0.009 -0.015,0.02 -0.019,0.03c-0.006,0.002 -0.012,0.004 -0.018,0.006c-0.006,0.002 -0.01,0.005 -0.013,0.009l-0.056,-0.04Z" style="fill:rgb(102,208,221);fill-rule:nonzero;"/>
                    </g>
                </g>
            </g>
        </g>
    </g>
</svg>
